<svg width="42" height="37" viewBox="0 0 42 37" fill="none" xmlns="http://www.w3.org/2000/svg">
<path fill-rule="evenodd" clip-rule="evenodd" d="M21.1667 30C21.9344 30 22.6269 30.4848 22.8895 31.2064C23.2352 32.1562 22.7437 33.2102 21.7938 33.5559C21.5916 33.6294 21.3808 33.6667 21.167 33.6667C20.3992 33.6667 19.7068 33.1819 19.4441 32.4603C19.0985 31.5105 19.5899 30.4566 20.5398 30.1108C20.742 30.0373 20.9529 30 21.1667 30ZM21.167 32.4447C21.2378 32.4447 21.3082 32.4322 21.3759 32.4075C21.6925 32.2923 21.8563 31.941 21.741 31.6244C21.6534 31.3837 21.4226 31.2221 21.1666 31.2221C21.0958 31.2221 21.0255 31.2345 20.9578 31.2592C20.6412 31.3744 20.4774 31.7258 20.5926 32.0424C20.6802 32.2831 20.911 32.4447 21.167 32.4447Z" fill="black"/>
<path fill-rule="evenodd" clip-rule="evenodd" d="M41.9627 25.4705L41.1209 23.1385C41.0633 22.9789 40.9475 22.8579 40.8065 22.7904L40.8028 22.7885C40.7966 22.7855 40.7903 22.783 40.7839 22.7805L40.7746 22.7768L40.7653 22.7729L40.7583 22.7699C40.7549 22.7684 40.7515 22.7671 40.748 22.7658C40.7466 22.7653 40.7451 22.7649 40.7436 22.7645L40.7414 22.7638C40.6132 22.7196 40.4697 22.7172 40.3325 22.7676L38.3207 23.5055L34.041 11.6469L34.0406 11.6461L32.3578 6.98302C32.2693 6.73898 32.0371 6.5751 31.7795 6.5751C31.7082 6.5751 31.6368 6.58751 31.5695 6.61232C31.2504 6.72897 31.0856 7.08634 31.2012 7.40732L32.6746 11.4883L24.7738 14.3882L24.7734 14.3883L24.7727 14.3885L19.956 16.1564L16.7293 7.21746L20.9692 5.66139L21.881 8.18734C21.9688 8.43138 22.201 8.59608 22.4585 8.59608C22.5307 8.59608 22.6013 8.58368 22.6694 8.55795L25.7528 7.42626C25.907 7.37001 26.0301 7.25585 26.0998 7.10611C26.1513 6.99476 26.1681 6.87341 26.151 6.75486L26.1508 6.75296C26.1485 6.73683 26.145 6.72061 26.1413 6.70465L26.14 6.69795L26.1386 6.69124C26.1336 6.67114 26.1275 6.65121 26.1204 6.63135L25.2089 4.10533L29.4479 2.5495L30.3596 5.0752C30.4482 5.31924 30.6803 5.48386 30.9379 5.48386C31.0093 5.48386 31.0806 5.47146 31.1487 5.44581C31.467 5.32917 31.6319 4.97254 31.5162 4.65082L30.394 1.54125C30.3165 1.32773 30.1292 1.1756 29.9109 1.14085C29.8797 1.13589 29.8479 1.13333 29.8157 1.13333C29.7444 1.13333 29.673 1.14573 29.6057 1.17055L24.2127 3.15026L24.2099 3.151L24.2051 3.15299L21.1319 4.2812C21.1301 4.28186 21.1283 4.28203 21.1264 4.28269C21.1234 4.28385 21.1205 4.28534 21.1175 4.28649L15.7306 6.26388C15.5764 6.32014 15.4534 6.4343 15.3836 6.58403C15.3139 6.73459 15.3065 6.90327 15.3631 7.05888L19.0101 17.1642L22.5171 26.8822C22.0725 26.7452 21.6057 26.6682 21.1276 26.6589L12.2429 2.04124C11.6628 0.433963 9.89422 -0.397677 8.30028 0.187193L8.29954 0.187524L0.406297 3.05843L0.405887 3.0586L0.404575 3.05901C0.39156 3.06379 0.379165 3.06941 0.366759 3.07503L0.363395 3.07655L0.356813 3.07932C0.353749 3.08056 0.350683 3.08181 0.347728 3.08325C0.335798 3.08897 0.324398 3.09555 0.313051 3.10211L0.313044 3.10211L0.309173 3.10435L0.302852 3.10779C0.299668 3.10948 0.296472 3.11118 0.293423 3.11311C0.282789 3.11964 0.272784 3.12679 0.262748 3.13397L0.262743 3.13397L0.258478 3.13702L0.25187 3.14155L0.251856 3.14156L0.251848 3.14156C0.248858 3.14356 0.245877 3.14556 0.243056 3.14769C0.233449 3.15507 0.224441 3.16299 0.215373 3.17096L0.212377 3.17359L0.205473 3.17943C0.202542 3.18184 0.199618 3.18424 0.196873 3.18682C0.189459 3.19366 0.182543 3.20104 0.17566 3.20839L0.169803 3.21462L0.163369 3.22123C0.160561 3.22404 0.157761 3.22685 0.155119 3.22984C0.148338 3.23755 0.142041 3.2457 0.135749 3.25384L0.135746 3.25384L0.13133 3.25954L0.126519 3.26548L0.126517 3.26548C0.123555 3.26908 0.120579 3.2727 0.117877 3.2765C0.112293 3.28422 0.107223 3.29226 0.102138 3.30032L0.102136 3.30033L0.0981079 3.30669L0.0929109 3.31459C0.0903224 3.31845 0.0877411 3.3223 0.0853932 3.3263C0.080877 3.33402 0.0768405 3.34202 0.0728068 3.35002L0.069069 3.3574L0.0648071 3.36544C0.0623989 3.36991 0.0599864 3.37439 0.0578308 3.37899C0.0545008 3.38617 0.0516128 3.39352 0.0487169 3.40088L0.044952 3.41035L0.0413713 3.41895C0.0392448 3.42395 0.0371328 3.42892 0.0353544 3.43409C0.0326212 3.44186 0.0303585 3.44981 0.028103 3.45775L0.0259209 3.46536L0.023163 3.47433L0.0231621 3.47434C0.0214098 3.47993 0.0196531 3.48554 0.01821 3.49125C0.0164029 3.49854 0.0150101 3.506 0.0136194 3.51344L0.0136187 3.51345L0.0118936 3.52252L0.0100253 3.5315C0.00872188 3.53761 0.00741585 3.54374 0.00647958 3.54991C0.00535744 3.55715 0.00473418 3.56447 0.0041111 3.57179L0.00319835 3.58192L0.00212812 3.59167C0.00142925 3.59769 0.000728965 3.60373 0.000409302 3.6098C3.97381e-06 3.61751 8.91268e-05 3.62522 0.00017428 3.63292L0.000245241 3.64256L0.000122621 3.65246C1.02187e-05 3.6585 -0.000102184 3.66455 0.00016321 3.6706C0.000501035 3.67821 0.00134126 3.68586 0.00217989 3.69349L0.00328038 3.70394L0.00410008 3.71325C0.00460767 3.71937 0.00511726 3.72551 0.00598739 3.73165C0.00714548 3.73942 0.00879404 3.74719 0.0104426 3.75495L0.0124678 3.76466L0.014359 3.77467C0.015462 3.78071 0.0165669 3.78677 0.0180459 3.79279C0.0199366 3.80047 0.0223875 3.80808 0.0248396 3.81568L0.0279716 3.82555L0.0309562 3.83577C0.0325649 3.84144 0.0341781 3.84714 0.0361747 3.85276L0.0364208 3.85334L0.0367489 3.8545L0.878466 6.18654C0.882848 6.1987 0.888374 6.21011 0.893894 6.22151L0.901107 6.23667C0.903316 6.24143 0.905369 6.2463 0.907421 6.25117C0.910934 6.25951 0.914447 6.26785 0.918744 6.27563C0.926089 6.28899 0.934586 6.30123 0.943134 6.31355L0.950982 6.32494C0.953744 6.32897 0.956339 6.33315 0.958934 6.33734C0.962891 6.34373 0.96685 6.35011 0.971407 6.35596C0.983083 6.3711 0.996233 6.38475 1.00933 6.39834L1.01447 6.40369C1.01739 6.40673 1.02015 6.40995 1.02292 6.41317L1.02293 6.41318C1.02671 6.41758 1.03049 6.42198 1.03465 6.42594C1.0507 6.44117 1.06827 6.45448 1.08575 6.46771L1.08576 6.46772L1.08773 6.46921C1.09046 6.47131 1.09308 6.47356 1.09569 6.4758L1.0957 6.4758C1.09936 6.47894 1.103 6.48206 1.10692 6.48476C1.12653 6.49841 1.14753 6.50991 1.16853 6.52108C1.1714 6.52261 1.17418 6.52434 1.17695 6.52608C1.18018 6.52811 1.18342 6.53014 1.18682 6.53183C1.20831 6.54242 1.23087 6.55061 1.25343 6.55855C1.25645 6.55962 1.25939 6.5609 1.26232 6.56217C1.26576 6.56367 1.2692 6.56517 1.27279 6.56633C1.29592 6.57369 1.31971 6.57841 1.34366 6.58304C1.34659 6.58359 1.34949 6.58436 1.35239 6.58513C1.35598 6.58608 1.35959 6.58704 1.36327 6.58759C1.39395 6.59247 1.4252 6.59487 1.4567 6.59487C1.47409 6.59487 1.49156 6.59404 1.50912 6.59264L1.51449 6.59193L1.51986 6.59123C1.53381 6.58974 1.54767 6.58817 1.56162 6.58577C1.56535 6.58509 1.56908 6.58422 1.57282 6.58335L1.58081 6.58155L1.58627 6.58042C1.59552 6.57851 1.60477 6.57659 1.61395 6.57411C1.62386 6.57152 1.63365 6.56823 1.64347 6.56493L1.6489 6.5631L1.65421 6.56147C1.65793 6.56035 1.66164 6.55924 1.66531 6.55789L1.66596 6.55764L1.66695 6.55731L1.66768 6.55698L8.98376 3.89586L17.6596 27.9337C16.112 29.2988 15.4675 31.5344 16.2119 33.5968C16.9466 35.6323 18.8827 37 21.0299 37C21.6272 37 22.217 36.8947 22.783 36.687C24.0698 36.2146 25.0971 35.2653 25.676 34.0137C25.9836 33.3483 26.1433 32.6401 26.1566 31.9275L41.5948 26.2659L41.595 26.2658H41.5951C41.5973 26.265 41.5995 26.264 41.6017 26.263L41.607 26.2607L41.6128 26.2584L41.6259 26.2532L41.6335 26.25C41.6401 26.2472 41.6466 26.2443 41.653 26.2411C41.6593 26.2381 41.6651 26.2343 41.6714 26.231L41.6758 26.2287C41.6864 26.2232 41.697 26.2176 41.7072 26.2113C41.7138 26.2072 41.7199 26.2024 41.7263 26.1982L41.7342 26.1929C41.7421 26.1876 41.75 26.1823 41.7575 26.1766L41.7623 26.1725L41.7666 26.1688C41.7792 26.1586 41.7918 26.1485 41.8035 26.1375C41.8055 26.1353 41.8073 26.1332 41.8093 26.1313C41.8217 26.1193 41.8338 26.1071 41.8452 26.0942C41.8475 26.0916 41.8494 26.0887 41.8517 26.0861C41.8623 26.0735 41.8728 26.0608 41.8824 26.0475L41.8837 26.0455L41.8852 26.043C41.8956 26.0282 41.9057 26.0131 41.9148 25.9975C41.9164 25.9947 41.9177 25.9916 41.9194 25.9887C41.9275 25.9743 41.9353 25.9599 41.9422 25.9449C41.945 25.939 41.9471 25.9328 41.9495 25.9268L41.9508 25.924C41.9556 25.9127 41.9605 25.9014 41.9646 25.8898C41.9677 25.8811 41.9699 25.8722 41.9725 25.8634L41.9753 25.8545L41.9753 25.8545C41.9776 25.8473 41.9799 25.8401 41.9817 25.8328C41.9855 25.8175 41.9883 25.8019 41.9909 25.7864L41.992 25.7806L41.9926 25.7778L41.9933 25.7742C42.0079 25.6753 41.999 25.5712 41.9627 25.4705ZM24.0528 4.52971L24.7538 6.47293L22.8267 7.18024L22.1253 5.23709L24.0528 4.52971ZM28.4013 16.578L27.6999 14.635L25.7725 15.3424L26.4737 17.2855L28.4013 16.578ZM20.3772 17.3225L24.6164 15.7667L25.5283 18.2926C25.6161 18.5366 25.8482 18.7012 26.1066 18.7012C26.178 18.7012 26.2485 18.688 26.3166 18.6631L29.4001 17.5314C29.7192 17.4148 29.884 17.0583 29.7676 16.7364L28.8558 14.2107L33.0957 12.6545L37.1649 23.9289L24.8899 28.4306C24.6593 28.1652 24.4038 27.9241 24.1266 27.7121L20.3772 17.3225ZM9.92282 2.87154C9.92547 2.8776 9.92811 2.88365 9.9304 2.88992L18.7104 27.2184C18.8918 27.1258 19.0797 27.0418 19.2755 26.9699C19.4698 26.8985 19.6671 26.8402 19.8665 26.7932L11.0864 2.46554C10.7383 1.50104 9.67725 1.00204 8.72077 1.35304L8.71946 1.35346L8.71905 1.35362L1.40387 4.01441L1.82477 5.18051L9.14085 2.51939L9.14159 2.51906L9.14249 2.51881L9.14331 2.51848C9.14676 2.51726 9.15024 2.51625 9.15371 2.51524L9.1616 2.51286L9.17012 2.5101L9.17014 2.5101C9.181 2.50657 9.19186 2.50304 9.20278 2.50028C9.21308 2.49769 9.22343 2.49581 9.23375 2.49393L9.23376 2.49393L9.23929 2.49292L9.24789 2.49111C9.25295 2.49001 9.25799 2.48891 9.26308 2.48812C9.27965 2.48564 9.29622 2.48432 9.31279 2.48324L9.3176 2.48273L9.32337 2.48217C9.34265 2.48126 9.36176 2.48134 9.38079 2.48225H9.38342C9.48185 2.48746 9.57701 2.5165 9.66101 2.56572L9.66453 2.56754C9.67963 2.57656 9.69423 2.58632 9.7085 2.59658C9.71031 2.59798 9.71228 2.59897 9.71408 2.6003C9.7268 2.60956 9.73894 2.61974 9.75091 2.63008L9.75529 2.63361L9.76051 2.63786C9.77076 2.64702 9.78036 2.65685 9.78998 2.66672L9.7916 2.66838L9.79659 2.67328C9.79889 2.67549 9.8012 2.6777 9.80333 2.68005C9.81206 2.68948 9.82007 2.69949 9.8281 2.70955L9.82958 2.7114L9.83513 2.71806C9.83753 2.72086 9.83992 2.72365 9.84213 2.72662C9.84821 2.7346 9.85372 2.74305 9.85924 2.75152L9.86346 2.75797L9.8686 2.76543C9.87134 2.76933 9.87407 2.77322 9.87658 2.77733C9.88097 2.78458 9.88495 2.79219 9.88892 2.7998L9.89307 2.80769L9.89783 2.81636C9.90072 2.82153 9.90361 2.8267 9.9062 2.83218C9.90909 2.83828 9.91163 2.84459 9.91416 2.85088L9.91826 2.86088L9.92282 2.87154ZM24.5606 33.489C24.1207 34.4403 23.34 35.1618 22.362 35.5208C21.9313 35.6789 21.483 35.759 21.0297 35.759C19.3979 35.759 17.9263 34.7195 17.368 33.1723C16.6332 31.1364 17.6779 28.8771 19.6967 28.136C20.1274 27.9779 20.5756 27.8977 21.029 27.8977C22.6607 27.8977 24.1324 28.9372 24.6907 30.4845C25.0467 31.4708 25.0005 32.5379 24.5606 33.489ZM25.8469 30.0602C25.9179 30.2568 25.9751 30.4558 26.0219 30.6564L40.5959 25.3117L40.175 24.1456L25.6012 29.4902C25.6936 29.6737 25.776 29.8638 25.8469 30.0602Z" fill="black"/>
</svg>
